<?xml version="1.0" encoding="utf-8" standalone="no"?>
<!DOCTYPE svg PUBLIC "-//W3C//DTD SVG 1.1//EN"
  "http://www.w3.org/Graphics/SVG/1.1/DTD/svg11.dtd">
<svg xmlns:xlink="http://www.w3.org/1999/xlink" width="595.31625pt" height="328.895469pt" viewBox="0 0 595.31625 328.895469" xmlns="http://www.w3.org/2000/svg" version="1.1">
 <metadata>
  <rdf:RDF xmlns:dc="http://purl.org/dc/elements/1.1/" xmlns:cc="http://creativecommons.org/ns#" xmlns:rdf="http://www.w3.org/1999/02/22-rdf-syntax-ns#">
   <cc:Work>
    <dc:type rdf:resource="http://purl.org/dc/dcmitype/StillImage"/>
    <dc:date>2026-10-05T20:51:45.452644</dc:date>
    <dc:format>image/svg+xml</dc:format>
    <dc:creator>
     <cc:Agent>
      <dc:title>Matplotlib v3.11.2, https://matplotlib.org/</dc:title>
     </cc:Agent>
    </dc:creator>
   </cc:Work>
  </rdf:RDF>
 </metadata>
 <defs>
  <style type="text/css">*{stroke-linejoin: round; stroke-linecap: butt}</style>
 </defs>
 <g id="figure_1">
  <g id="patch_1">
   <path d="M 0 328.895469 
L 595.31625 328.895469 
L 595.31625 -0 
L 0 -0 
z
" style="fill: #ffffff"/>
  </g>
  <g id="axes_1">
   <g id="patch_2">
    <path d="M 38.1 296.684141 
L 591.71625 296.684141 
L 591.71625 19.620937 
L 38.1 19.620937 
z
" style="fill: #ffffff"/>
   </g>
   <g id="matplotlib.axis_1">
    <g id="xtick_1">
     <g id="line2d_1">
      <path d="M 96.816875 296.684141 
L 96.816875 19.620937 
" clip-path="url(#p396935acb5)" style="fill: none; stroke: #d9d9d4; stroke-opacity: 0.3; stroke-width: 0.5; stroke-linecap: square"/>
     </g>
     <g id="line2d_2">
      <defs>
       <path id="mc03249ac7a" d="M 0 0 
L 0 -3.5 
" style="stroke: #000000; stroke-width: 0.8"/>
      </defs>
      <g>
       <use xlink:href="#mc03249ac7a" x="96.816875" y="296.684141" style="stroke: #000000; stroke-width: 0.8"/>
      </g>
     </g>
     <g id="line2d_3">
      <defs>
       <path id="m082576ecae" d="M 0 0 
L 0 3.5 
" style="stroke: #000000; stroke-width: 0.8"/>
      </defs>
      <g>
       <use xlink:href="#m082576ecae" x="96.816875" y="19.620937" style="stroke: #000000; stroke-width: 0.8"/>
      </g>
     </g>
     <g id="text_1">
      <!-- $\mathdefault{20}$ -->
      <g transform="translate(91.816875 307.234922) scale(0.1 -0.1)">
       <defs>
        <path id="Cmr10-31" d="M 319 0 
L 319 172 
Q 319 188 331 206 
L 1325 1306 
Q 1550 1550 1690 1715 
Q 1831 1881 1968 2097 
Q 2106 2313 2186 2536 
Q 2266 2759 2266 3009 
Q 2266 3272 2169 3511 
Q 2072 3750 1880 3894 
Q 1688 4038 1416 4038 
Q 1138 4038 916 3870 
Q 694 3703 603 3438 
Q 628 3444 672 3444 
Q 816 3444 917 3347 
Q 1019 3250 1019 3097 
Q 1019 2950 917 2848 
Q 816 2747 672 2747 
Q 522 2747 420 2851 
Q 319 2956 319 3097 
Q 319 3338 409 3548 
Q 500 3759 670 3923 
Q 841 4088 1055 4175 
Q 1269 4263 1509 4263 
Q 1875 4263 2190 4108 
Q 2506 3953 2690 3670 
Q 2875 3388 2875 3009 
Q 2875 2731 2753 2481 
Q 2631 2231 2440 2026 
Q 2250 1822 1953 1562 
Q 1656 1303 1563 1216 
L 838 519 
L 1453 519 
Q 1906 519 2211 526 
Q 2516 534 2534 550 
Q 2609 631 2688 1141 
L 2875 1141 
L 2694 0 
L 319 0 
z
" transform="scale(0.015625)"/>
        <path id="Cmr10-28" d="M 1600 -141 
Q 816 -141 533 504 
Q 250 1150 250 2041 
Q 250 2597 351 3087 
Q 453 3578 754 3920 
Q 1056 4263 1600 4263 
Q 2022 4263 2290 4056 
Q 2559 3850 2700 3523 
Q 2841 3197 2892 2823 
Q 2944 2450 2944 2041 
Q 2944 1491 2842 1011 
Q 2741 531 2444 195 
Q 2147 -141 1600 -141 
z
M 1600 25 
Q 1956 25 2131 390 
Q 2306 756 2347 1200 
Q 2388 1644 2388 2144 
Q 2388 2625 2347 3031 
Q 2306 3438 2132 3767 
Q 1959 4097 1600 4097 
Q 1238 4097 1063 3765 
Q 888 3434 847 3029 
Q 806 2625 806 2144 
Q 806 1788 823 1472 
Q 841 1156 916 820 
Q 991 484 1158 254 
Q 1325 25 1600 25 
z
" transform="scale(0.015625)"/>
       </defs>
       <use xlink:href="#Cmr10-31" transform="translate(0 0.390625)"/>
       <use xlink:href="#Cmr10-28" transform="translate(50 0.390625)"/>
      </g>
     </g>
    </g>
    <g id="xtick_2">
     <g id="line2d_4">
      <path d="M 163.921875 296.684141 
L 163.921875 19.620937 
" clip-path="url(#p396935acb5)" style="fill: none; stroke: #d9d9d4; stroke-opacity: 0.3; stroke-width: 0.5; stroke-linecap: square"/>
     </g>
     <g id="line2d_5">
      <g>
       <use xlink:href="#mc03249ac7a" x="163.921875" y="296.684141" style="stroke: #000000; stroke-width: 0.8"/>
      </g>
     </g>
     <g id="line2d_6">
      <g>
       <use xlink:href="#m082576ecae" x="163.921875" y="19.620937" style="stroke: #000000; stroke-width: 0.8"/>
      </g>
     </g>
     <g id="text_2">
      <!-- $\mathdefault{40}$ -->
      <g transform="translate(158.921875 307.234922) scale(0.1 -0.1)">
       <defs>
        <path id="Cmr10-3b" d="M 178 1056 
L 178 1281 
L 2156 4231 
Q 2178 4263 2222 4263 
L 2316 4263 
Q 2388 4263 2388 4191 
L 2388 1281 
L 3016 1281 
L 3016 1056 
L 2388 1056 
L 2388 428 
Q 2388 297 2575 261 
Q 2763 225 3009 225 
L 3009 0 
L 1247 0 
L 1247 225 
Q 1494 225 1681 261 
Q 1869 297 1869 428 
L 1869 1056 
L 178 1056 
z
M 391 1281 
L 1906 1281 
L 1906 3547 
L 391 1281 
z
" transform="scale(0.015625)"/>
       </defs>
       <use xlink:href="#Cmr10-3b" transform="translate(0 0.390625)"/>
       <use xlink:href="#Cmr10-28" transform="translate(50 0.390625)"/>
      </g>
     </g>
    </g>
    <g id="xtick_3">
     <g id="line2d_7">
      <path d="M 231.026875 296.684141 
L 231.026875 19.620937 
" clip-path="url(#p396935acb5)" style="fill: none; stroke: #d9d9d4; stroke-opacity: 0.3; stroke-width: 0.5; stroke-linecap: square"/>
     </g>
     <g id="line2d_8">
      <g>
       <use xlink:href="#mc03249ac7a" x="231.026875" y="296.684141" style="stroke: #000000; stroke-width: 0.8"/>
      </g>
     </g>
     <g id="line2d_9">
      <g>
       <use xlink:href="#m082576ecae" x="231.026875" y="19.620937" style="stroke: #000000; stroke-width: 0.8"/>
      </g>
     </g>
     <g id="text_3">
      <!-- $\mathdefault{60}$ -->
      <g transform="translate(226.026875 307.234922) scale(0.1 -0.1)">
       <defs>
        <path id="Cmr10-45" d="M 1600 -141 
Q 1203 -141 937 70 
Q 672 281 526 617 
Q 381 953 325 1322 
Q 269 1691 269 2069 
Q 269 2575 466 3084 
Q 663 3594 1045 3928 
Q 1428 4263 1953 4263 
Q 2172 4263 2361 4180 
Q 2550 4097 2658 3936 
Q 2766 3775 2766 3547 
Q 2766 3416 2677 3327 
Q 2588 3238 2456 3238 
Q 2331 3238 2240 3328 
Q 2150 3419 2150 3547 
Q 2150 3672 2240 3762 
Q 2331 3853 2456 3853 
L 2491 3853 
Q 2409 3969 2261 4023 
Q 2113 4078 1953 4078 
Q 1759 4078 1595 3993 
Q 1431 3909 1300 3765 
Q 1169 3622 1081 3448 
Q 994 3275 945 3053 
Q 897 2831 884 2637 
Q 872 2444 872 2150 
Q 984 2413 1190 2580 
Q 1397 2747 1656 2747 
Q 1941 2747 2175 2631 
Q 2409 2516 2578 2311 
Q 2747 2106 2836 1843 
Q 2925 1581 2925 1313 
Q 2925 938 2758 598 
Q 2591 259 2287 59 
Q 1984 -141 1600 -141 
z
M 1600 63 
Q 1847 63 1997 175 
Q 2147 288 2217 473 
Q 2288 659 2305 848 
Q 2322 1038 2322 1313 
Q 2322 1675 2287 1931 
Q 2253 2188 2100 2383 
Q 1947 2578 1631 2578 
Q 1372 2578 1205 2403 
Q 1038 2228 961 1961 
Q 884 1694 884 1447 
Q 884 1363 891 1319 
Q 891 1309 889 1303 
Q 888 1297 884 1288 
Q 884 1013 940 731 
Q 997 450 1156 256 
Q 1316 63 1600 63 
z
" transform="scale(0.015625)"/>
       </defs>
       <use xlink:href="#Cmr10-45" transform="translate(0 0.390625)"/>
       <use xlink:href="#Cmr10-28" transform="translate(50 0.390625)"/>
      </g>
     </g>
    </g>
    <g id="xtick_4">
     <g id="line2d_10">
      <path d="M 298.131875 296.684141 
L 298.131875 19.620937 
" clip-path="url(#p396935acb5)" style="fill: none; stroke: #d9d9d4; stroke-opacity: 0.3; stroke-width: 0.5; stroke-linecap: square"/>
     </g>
     <g id="line2d_11">
      <g>
       <use xlink:href="#mc03249ac7a" x="298.131875" y="296.684141" style="stroke: #000000; stroke-width: 0.8"/>
      </g>
     </g>
     <g id="line2d_12">
      <g>
       <use xlink:href="#m082576ecae" x="298.131875" y="19.620937" style="stroke: #000000; stroke-width: 0.8"/>
      </g>
     </g>
     <g id="text_4">
      <!-- $\mathdefault{80}$ -->
      <g transform="translate(293.131875 307.234922) scale(0.1 -0.1)">
       <defs>
        <path id="Cmr10-4d" d="M 269 972 
Q 269 1356 522 1651 
Q 775 1947 1172 2144 
L 934 2297 
Q 716 2441 578 2680 
Q 441 2919 441 3181 
Q 441 3488 602 3734 
Q 763 3981 1030 4122 
Q 1297 4263 1600 4263 
Q 1884 4263 2148 4147 
Q 2413 4031 2583 3815 
Q 2753 3600 2753 3303 
Q 2753 3088 2651 2903 
Q 2550 2719 2373 2572 
Q 2197 2425 1997 2322 
L 2363 2088 
Q 2616 1922 2770 1653 
Q 2925 1384 2925 1088 
Q 2925 741 2739 456 
Q 2553 172 2247 15 
Q 1941 -141 1600 -141 
Q 1269 -141 961 -6 
Q 653 128 461 383 
Q 269 638 269 972 
z
M 616 972 
Q 616 719 755 509 
Q 894 300 1122 181 
Q 1350 63 1600 63 
Q 1972 63 2275 280 
Q 2578 497 2578 856 
Q 2578 978 2529 1098 
Q 2481 1219 2395 1317 
Q 2309 1416 2203 1478 
L 1344 2034 
Q 1144 1928 976 1765 
Q 809 1603 712 1400 
Q 616 1197 616 972 
z
M 1056 2925 
L 1831 2425 
Q 2100 2581 2272 2803 
Q 2444 3025 2444 3303 
Q 2444 3519 2323 3698 
Q 2203 3878 2009 3978 
Q 1816 4078 1594 4078 
Q 1400 4078 1203 4003 
Q 1006 3928 878 3779 
Q 750 3631 750 3431 
Q 750 3131 1056 2925 
z
" transform="scale(0.015625)"/>
       </defs>
       <use xlink:href="#Cmr10-4d" transform="translate(0 0.390625)"/>
       <use xlink:href="#Cmr10-28" transform="translate(50 0.390625)"/>
      </g>
     </g>
    </g>
    <g id="xtick_5">
     <g id="line2d_13">
      <path d="M 365.236875 296.684141 
L 365.236875 19.620937 
" clip-path="url(#p396935acb5)" style="fill: none; stroke: #d9d9d4; stroke-opacity: 0.3; stroke-width: 0.5; stroke-linecap: square"/>
     </g>
     <g id="line2d_14">
      <g>
       <use xlink:href="#mc03249ac7a" x="365.236875" y="296.684141" style="stroke: #000000; stroke-width: 0.8"/>
      </g>
     </g>
     <g id="line2d_15">
      <g>
       <use xlink:href="#m082576ecae" x="365.236875" y="19.620937" style="stroke: #000000; stroke-width: 0.8"/>
      </g>
     </g>
     <g id="text_5">
      <!-- $\mathdefault{100}$ -->
      <g transform="translate(357.736875 307.234922) scale(0.1 -0.1)">
       <defs>
        <path id="Cmr10-64" d="M 594 0 
L 594 225 
Q 1394 225 1394 428 
L 1394 3788 
Q 1063 3628 556 3628 
L 556 3853 
Q 1341 3853 1741 4263 
L 1831 4263 
Q 1853 4263 1873 4245 
Q 1894 4228 1894 4206 
L 1894 428 
Q 1894 225 2694 225 
L 2694 0 
L 594 0 
z
" transform="scale(0.015625)"/>
       </defs>
       <use xlink:href="#Cmr10-64" transform="translate(0 0.390625)"/>
       <use xlink:href="#Cmr10-28" transform="translate(50 0.390625)"/>
       <use xlink:href="#Cmr10-28" transform="translate(100 0.390625)"/>
      </g>
     </g>
    </g>
    <g id="xtick_6">
     <g id="line2d_16">
      <path d="M 432.341875 296.684141 
L 432.341875 19.620937 
" clip-path="url(#p396935acb5)" style="fill: none; stroke: #d9d9d4; stroke-opacity: 0.3; stroke-width: 0.5; stroke-linecap: square"/>
     </g>
     <g id="line2d_17">
      <g>
       <use xlink:href="#mc03249ac7a" x="432.341875" y="296.684141" style="stroke: #000000; stroke-width: 0.8"/>
      </g>
     </g>
     <g id="line2d_18">
      <g>
       <use xlink:href="#m082576ecae" x="432.341875" y="19.620937" style="stroke: #000000; stroke-width: 0.8"/>
      </g>
     </g>
     <g id="text_6">
      <!-- $\mathdefault{120}$ -->
      <g transform="translate(424.841875 307.234922) scale(0.1 -0.1)">
       <use xlink:href="#Cmr10-64" transform="translate(0 0.390625)"/>
       <use xlink:href="#Cmr10-31" transform="translate(50 0.390625)"/>
       <use xlink:href="#Cmr10-28" transform="translate(100 0.390625)"/>
      </g>
     </g>
    </g>
    <g id="xtick_7">
     <g id="line2d_19">
      <path d="M 499.446875 296.684141 
L 499.446875 19.620937 
" clip-path="url(#p396935acb5)" style="fill: none; stroke: #d9d9d4; stroke-opacity: 0.3; stroke-width: 0.5; stroke-linecap: square"/>
     </g>
     <g id="line2d_20">
      <g>
       <use xlink:href="#mc03249ac7a" x="499.446875" y="296.684141" style="stroke: #000000; stroke-width: 0.8"/>
      </g>
     </g>
     <g id="line2d_21">
      <g>
       <use xlink:href="#m082576ecae" x="499.446875" y="19.620937" style="stroke: #000000; stroke-width: 0.8"/>
      </g>
     </g>
     <g id="text_7">
      <!-- $\mathdefault{140}$ -->
      <g transform="translate(491.946875 307.234922) scale(0.1 -0.1)">
       <use xlink:href="#Cmr10-64" transform="translate(0 0.390625)"/>
       <use xlink:href="#Cmr10-3b" transform="translate(50 0.390625)"/>
       <use xlink:href="#Cmr10-28" transform="translate(100 0.390625)"/>
      </g>
     </g>
    </g>
    <g id="xtick_8">
     <g id="line2d_22">
      <path d="M 566.551875 296.684141 
L 566.551875 19.620937 
" clip-path="url(#p396935acb5)" style="fill: none; stroke: #d9d9d4; stroke-opacity: 0.3; stroke-width: 0.5; stroke-linecap: square"/>
     </g>
     <g id="line2d_23">
      <g>
       <use xlink:href="#mc03249ac7a" x="566.551875" y="296.684141" style="stroke: #000000; stroke-width: 0.8"/>
      </g>
     </g>
     <g id="line2d_24">
      <g>
       <use xlink:href="#m082576ecae" x="566.551875" y="19.620937" style="stroke: #000000; stroke-width: 0.8"/>
      </g>
     </g>
     <g id="text_8">
      <!-- $\mathdefault{160}$ -->
      <g transform="translate(559.051875 307.234922) scale(0.1 -0.1)">
       <use xlink:href="#Cmr10-64" transform="translate(0 0.390625)"/>
       <use xlink:href="#Cmr10-45" transform="translate(50 0.390625)"/>
       <use xlink:href="#Cmr10-28" transform="translate(100 0.390625)"/>
      </g>
     </g>
    </g>
    <g id="text_9">
     <!-- Frequency (Hz) -->
     <g transform="translate(273.856875 322.295469) scale(0.12 -0.12)">
      <defs>
       <path id="Cmr10-33" d="M 197 0 
L 197 225 
Q 856 225 856 428 
L 856 3944 
Q 856 4147 197 4147 
L 197 4372 
L 3725 4372 
L 3903 2906 
L 3719 2906 
Q 3675 3309 3601 3542 
Q 3528 3775 3387 3908 
Q 3247 4041 3011 4094 
Q 2775 4147 2363 4147 
L 1778 4147 
Q 1663 4147 1598 4137 
Q 1534 4128 1493 4083 
Q 1453 4038 1453 3944 
L 1453 2297 
L 1906 2297 
Q 2234 2297 2387 2355 
Q 2541 2413 2598 2566 
Q 2656 2719 2656 3047 
L 2841 3047 
L 2841 1325 
L 2656 1325 
Q 2656 1653 2598 1806 
Q 2541 1959 2387 2017 
Q 2234 2075 1906 2075 
L 1453 2075 
L 1453 428 
Q 1453 225 2272 225 
L 2272 0 
L 197 0 
z
" transform="scale(0.015625)"/>
       <path id="Cmr10-84" d="M 166 0 
L 166 225 
Q 384 225 525 259 
Q 666 294 666 428 
L 666 2175 
Q 666 2347 614 2423 
Q 563 2500 466 2517 
Q 369 2534 166 2534 
L 166 2759 
L 1081 2828 
L 1081 2203 
Q 1184 2481 1375 2654 
Q 1566 2828 1838 2828 
Q 2028 2828 2178 2715 
Q 2328 2603 2328 2419 
Q 2328 2303 2245 2217 
Q 2163 2131 2041 2131 
Q 1922 2131 1837 2215 
Q 1753 2300 1753 2419 
Q 1753 2591 1875 2663 
L 1838 2663 
Q 1578 2663 1414 2475 
Q 1250 2288 1181 2009 
Q 1113 1731 1113 1478 
L 1113 428 
Q 1113 225 1734 225 
L 1734 0 
L 166 0 
z
" transform="scale(0.015625)"/>
       <path id="Cmr10-82" d="M 1594 -72 
Q 1203 -72 876 133 
Q 550 338 364 680 
Q 178 1022 178 1403 
Q 178 1778 348 2115 
Q 519 2453 823 2661 
Q 1128 2869 1503 2869 
Q 1797 2869 2014 2770 
Q 2231 2672 2372 2497 
Q 2513 2322 2584 2084 
Q 2656 1847 2656 1563 
Q 2656 1478 2591 1478 
L 738 1478 
L 738 1409 
Q 738 878 952 497 
Q 1166 116 1650 116 
Q 1847 116 2014 203 
Q 2181 291 2304 447 
Q 2428 603 2472 781 
Q 2478 803 2495 820 
Q 2513 838 2534 838 
L 2591 838 
Q 2656 838 2656 756 
Q 2566 394 2266 161 
Q 1966 -72 1594 -72 
z
M 744 1638 
L 2203 1638 
Q 2203 1878 2136 2125 
Q 2069 2372 1912 2536 
Q 1756 2700 1503 2700 
Q 1141 2700 942 2361 
Q 744 2022 744 1638 
z
" transform="scale(0.015625)"/>
       <path id="Cmr10-4a" d="M 1919 -1241 
L 1919 -1019 
Q 2138 -1019 2278 -981 
Q 2419 -944 2419 -813 
L 2419 372 
Q 2269 172 2041 50 
Q 1813 -72 1563 -72 
Q 1275 -72 1028 47 
Q 781 166 598 369 
Q 416 572 314 839 
Q 213 1106 213 1381 
Q 213 1763 400 2098 
Q 588 2434 914 2631 
Q 1241 2828 1619 2828 
Q 1891 2828 2122 2675 
Q 2353 2522 2491 2266 
L 2719 2828 
L 2888 2828 
L 2888 -813 
Q 2888 -944 3028 -981 
Q 3169 -1019 3384 -1019 
L 3384 -1241 
L 1919 -1241 
z
M 1600 97 
Q 1884 97 2107 286 
Q 2331 475 2438 763 
L 2438 1888 
Q 2372 2194 2165 2419 
Q 1959 2644 1672 2644 
Q 1453 2644 1281 2528 
Q 1109 2413 995 2219 
Q 881 2025 825 1800 
Q 769 1575 769 1375 
Q 769 1119 859 817 
Q 950 516 1137 306 
Q 1325 97 1600 97 
z
" transform="scale(0.015625)"/>
       <path id="Cmr10-5a" d="M 691 763 
L 691 2175 
Q 691 2347 639 2423 
Q 588 2500 491 2517 
Q 394 2534 191 2534 
L 191 2759 
L 1159 2828 
L 1159 763 
Q 1159 513 1195 373 
Q 1231 234 1348 165 
Q 1466 97 1722 97 
Q 2066 97 2269 384 
Q 2472 672 2472 1038 
L 2472 2175 
Q 2472 2347 2419 2423 
Q 2366 2500 2270 2517 
Q 2175 2534 1972 2534 
L 1972 2759 
L 2938 2828 
L 2938 581 
Q 2938 413 2989 336 
Q 3041 259 3137 242 
Q 3234 225 3438 225 
L 3438 0 
L 2491 -72 
L 2491 469 
Q 2372 228 2159 78 
Q 1947 -72 1691 -72 
Q 1231 -72 961 123 
Q 691 319 691 763 
z
" transform="scale(0.015625)"/>
       <path id="Cmr10-74" d="M 191 0 
L 191 225 
Q 409 225 550 259 
Q 691 294 691 428 
L 691 2175 
Q 691 2347 639 2423 
Q 588 2500 491 2517 
Q 394 2534 191 2534 
L 191 2759 
L 1119 2828 
L 1119 2203 
Q 1247 2478 1498 2653 
Q 1750 2828 2047 2828 
Q 2491 2828 2714 2615 
Q 2938 2403 2938 1966 
L 2938 428 
Q 2938 294 3078 259 
Q 3219 225 3438 225 
L 3438 0 
L 1972 0 
L 1972 225 
Q 2191 225 2331 259 
Q 2472 294 2472 428 
L 2472 1947 
Q 2472 2259 2381 2461 
Q 2291 2663 2009 2663 
Q 1638 2663 1398 2366 
Q 1159 2069 1159 1691 
L 1159 428 
Q 1159 294 1300 259 
Q 1441 225 1656 225 
L 1656 0 
L 191 0 
z
" transform="scale(0.015625)"/>
       <path id="Cmr10-7b" d="M 1594 -72 
Q 1206 -72 890 129 
Q 575 331 394 667 
Q 213 1003 213 1381 
Q 213 1759 392 2106 
Q 572 2453 889 2661 
Q 1206 2869 1594 2869 
Q 1969 2869 2276 2722 
Q 2584 2575 2584 2241 
Q 2584 2116 2495 2023 
Q 2406 1931 2278 1931 
Q 2150 1931 2061 2023 
Q 1972 2116 1972 2241 
Q 1972 2353 2044 2436 
Q 2116 2519 2222 2541 
Q 2000 2681 1600 2681 
Q 1294 2681 1106 2478 
Q 919 2275 844 1975 
Q 769 1675 769 1381 
Q 769 1072 861 783 
Q 953 494 1158 305 
Q 1363 116 1672 116 
Q 1975 116 2187 302 
Q 2400 488 2478 788 
Q 2478 825 2528 825 
L 2606 825 
Q 2625 825 2640 808 
Q 2656 791 2656 769 
L 2656 750 
Q 2559 372 2271 150 
Q 1984 -72 1594 -72 
z
" transform="scale(0.015625)"/>
       <path id="Cmr10-6b" d="M 441 -1050 
Q 563 -1147 709 -1147 
Q 1113 -1147 1369 -538 
L 1588 0 
L 628 2350 
Q 569 2469 447 2501 
Q 325 2534 122 2534 
L 122 2759 
L 1466 2759 
L 1466 2534 
Q 1113 2534 1113 2381 
Q 1113 2356 1119 2344 
L 1831 594 
L 2472 2169 
Q 2491 2219 2491 2278 
Q 2491 2356 2448 2414 
Q 2406 2472 2339 2503 
Q 2272 2534 2188 2534 
L 2188 2759 
L 3250 2759 
L 3250 2534 
Q 3053 2534 2904 2443 
Q 2756 2353 2675 2175 
L 1569 -538 
Q 1481 -744 1364 -917 
Q 1247 -1091 1078 -1202 
Q 909 -1313 709 -1313 
Q 475 -1313 298 -1158 
Q 122 -1003 122 -775 
Q 122 -656 203 -575 
Q 284 -494 403 -494 
Q 484 -494 548 -530 
Q 613 -566 648 -628 
Q 684 -691 684 -775 
Q 684 -878 615 -959 
Q 547 -1041 441 -1050 
z
" transform="scale(0.015625)"/>
       <path id="Cmr10-53" transform="scale(0.015625)"/>
       <path id="Cmr10-77" d="M 1984 -1588 
Q 1628 -1306 1370 -942 
Q 1113 -578 948 -165 
Q 784 247 703 697 
Q 622 1147 622 1600 
Q 622 2059 703 2509 
Q 784 2959 951 3375 
Q 1119 3791 1378 4153 
Q 1638 4516 1984 4788 
Q 1984 4800 2016 4800 
L 2075 4800 
Q 2094 4800 2109 4783 
Q 2125 4766 2125 4744 
Q 2125 4716 2113 4703 
Q 1800 4397 1592 4047 
Q 1384 3697 1257 3301 
Q 1131 2906 1075 2482 
Q 1019 2059 1019 1600 
Q 1019 -434 2106 -1491 
Q 2125 -1509 2125 -1544 
Q 2125 -1559 2108 -1579 
Q 2091 -1600 2075 -1600 
L 2016 -1600 
Q 1984 -1600 1984 -1588 
z
" transform="scale(0.015625)"/>
       <path id="Cmr10-3c" d="M 197 0 
L 197 225 
Q 856 225 856 428 
L 856 3944 
Q 856 4147 197 4147 
L 197 4372 
L 2113 4372 
L 2113 4147 
Q 1453 4147 1453 3944 
L 1453 2388 
L 3341 2388 
L 3341 3944 
Q 3341 4147 2681 4147 
L 2681 4372 
L 4594 4372 
L 4594 4147 
Q 3938 4147 3938 3944 
L 3938 428 
Q 3938 225 4594 225 
L 4594 0 
L 2681 0 
L 2681 225 
Q 3341 225 3341 428 
L 3341 2163 
L 1453 2163 
L 1453 428 
Q 1453 225 2113 225 
L 2113 0 
L 197 0 
z
" transform="scale(0.015625)"/>
       <path id="Cmr10-39" d="M 250 0 
Q 178 0 178 72 
L 178 122 
Q 178 147 197 166 
L 1984 2591 
L 1409 2591 
Q 1138 2591 961 2556 
Q 784 2522 670 2426 
Q 556 2331 504 2164 
Q 453 1997 453 1703 
L 269 1703 
L 341 2759 
L 2484 2759 
Q 2513 2759 2533 2739 
Q 2553 2719 2553 2688 
L 2553 2650 
Q 2553 2631 2541 2606 
L 750 184 
L 1363 184 
Q 1641 184 1827 218 
Q 2013 253 2144 384 
Q 2266 506 2311 712 
Q 2356 919 2381 1222 
L 2566 1222 
L 2456 0 
L 250 0 
z
" transform="scale(0.015625)"/>
       <path id="Cmr10-44" d="M 416 -1600 
Q 359 -1600 359 -1544 
Q 359 -1516 372 -1503 
Q 1466 -434 1466 1600 
Q 1466 3634 384 4691 
Q 359 4706 359 4744 
Q 359 4766 376 4783 
Q 394 4800 416 4800 
L 475 4800 
Q 494 4800 506 4788 
Q 966 4425 1272 3906 
Q 1578 3388 1720 2800 
Q 1863 2213 1863 1600 
Q 1863 1147 1786 708 
Q 1709 269 1542 -157 
Q 1375 -584 1119 -945 
Q 863 -1306 506 -1588 
Q 494 -1600 475 -1600 
L 416 -1600 
z
" transform="scale(0.015625)"/>
      </defs>
      <use xlink:href="#Cmr10-33"/>
      <use xlink:href="#Cmr10-84" transform="translate(65.1875 0)"/>
      <use xlink:href="#Cmr10-82" transform="translate(104.296875 0)"/>
      <use xlink:href="#Cmr10-4a" transform="translate(148.6875 0)"/>
      <use xlink:href="#Cmr10-5a" transform="translate(201.375 0)"/>
      <use xlink:href="#Cmr10-82" transform="translate(256.890625 0)"/>
      <use xlink:href="#Cmr10-74" transform="translate(301.28125 0)"/>
      <use xlink:href="#Cmr10-7b" transform="translate(356.796875 0)"/>
      <use xlink:href="#Cmr10-6b" transform="translate(401.1875 0)"/>
      <use xlink:href="#Cmr10-53" transform="translate(453.875 0)"/>
      <use xlink:href="#Cmr10-77" transform="translate(487.171875 0)"/>
      <use xlink:href="#Cmr10-3c" transform="translate(525.984375 0)"/>
      <use xlink:href="#Cmr10-39" transform="translate(600.984375 0)"/>
      <use xlink:href="#Cmr10-44" transform="translate(645.375 0)"/>
     </g>
    </g>
   </g>
   <g id="matplotlib.axis_2">
    <g id="ytick_1">
     <g id="line2d_25">
      <path d="M 38.1 289.295789 
L 591.71625 289.295789 
" clip-path="url(#p396935acb5)" style="fill: none; stroke: #d9d9d4; stroke-opacity: 0.3; stroke-width: 0.5; stroke-linecap: square"/>
     </g>
     <g id="line2d_26">
      <defs>
       <path id="mc6da66d18e" d="M 0 0 
L 3.5 0 
" style="stroke: #000000; stroke-width: 0.8"/>
      </defs>
      <g>
       <use xlink:href="#mc6da66d18e" x="38.1" y="289.295789" style="stroke: #000000; stroke-width: 0.8"/>
      </g>
     </g>
     <g id="line2d_27">
      <defs>
       <path id="md430802e96" d="M 0 0 
L -3.5 0 
" style="stroke: #000000; stroke-width: 0.8"/>
      </defs>
      <g>
       <use xlink:href="#md430802e96" x="591.71625" y="289.295789" style="stroke: #000000; stroke-width: 0.8"/>
      </g>
     </g>
     <g id="text_10">
      <!-- $\mathdefault{60}$ -->
      <g transform="translate(24.6 292.821179) scale(0.1 -0.1)">
       <use xlink:href="#Cmr10-45" transform="translate(0 0.390625)"/>
       <use xlink:href="#Cmr10-28" transform="translate(50 0.390625)"/>
      </g>
     </g>
    </g>
    <g id="ytick_2">
     <g id="line2d_28">
      <path d="M 38.1 252.354028 
L 591.71625 252.354028 
" clip-path="url(#p396935acb5)" style="fill: none; stroke: #d9d9d4; stroke-opacity: 0.3; stroke-width: 0.5; stroke-linecap: square"/>
     </g>
     <g id="line2d_29">
      <g>
       <use xlink:href="#mc6da66d18e" x="38.1" y="252.354028" style="stroke: #000000; stroke-width: 0.8"/>
      </g>
     </g>
     <g id="line2d_30">
      <g>
       <use xlink:href="#md430802e96" x="591.71625" y="252.354028" style="stroke: #000000; stroke-width: 0.8"/>
      </g>
     </g>
     <g id="text_11">
      <!-- $\mathdefault{70}$ -->
      <g transform="translate(24.6 255.879419) scale(0.1 -0.1)">
       <defs>
        <path id="Cmr10-7f" d="M 1113 166 
Q 1113 522 1175 862 
Q 1238 1203 1358 1536 
Q 1478 1869 1648 2189 
Q 1819 2509 2022 2791 
L 2606 3603 
L 1875 3603 
Q 738 3603 703 3572 
Q 619 3469 544 2981 
L 359 2981 
L 569 4325 
L 756 4325 
L 756 4306 
Q 756 4191 1147 4156 
Q 1538 4122 1913 4122 
L 3103 4122 
L 3103 3956 
Q 3103 3950 3101 3947 
Q 3100 3944 3097 3938 
L 2216 2700 
Q 1891 2219 1809 1631 
Q 1728 1044 1728 166 
Q 1728 41 1637 -50 
Q 1547 -141 1422 -141 
Q 1294 -141 1203 -50 
Q 1113 41 1113 166 
z
" transform="scale(0.015625)"/>
       </defs>
       <use xlink:href="#Cmr10-7f" transform="translate(0 0.421875)"/>
       <use xlink:href="#Cmr10-28" transform="translate(50 0.421875)"/>
      </g>
     </g>
    </g>
    <g id="ytick_3">
     <g id="line2d_31">
      <path d="M 38.1 215.412268 
L 591.71625 215.412268 
" clip-path="url(#p396935acb5)" style="fill: none; stroke: #d9d9d4; stroke-opacity: 0.3; stroke-width: 0.5; stroke-linecap: square"/>
     </g>
     <g id="line2d_32">
      <g>
       <use xlink:href="#mc6da66d18e" x="38.1" y="215.412268" style="stroke: #000000; stroke-width: 0.8"/>
      </g>
     </g>
     <g id="line2d_33">
      <g>
       <use xlink:href="#md430802e96" x="591.71625" y="215.412268" style="stroke: #000000; stroke-width: 0.8"/>
      </g>
     </g>
     <g id="text_12">
      <!-- $\mathdefault{80}$ -->
      <g transform="translate(24.6 218.937658) scale(0.1 -0.1)">
       <use xlink:href="#Cmr10-4d" transform="translate(0 0.390625)"/>
       <use xlink:href="#Cmr10-28" transform="translate(50 0.390625)"/>
      </g>
     </g>
    </g>
    <g id="ytick_4">
     <g id="line2d_34">
      <path d="M 38.1 178.470507 
L 591.71625 178.470507 
" clip-path="url(#p396935acb5)" style="fill: none; stroke: #d9d9d4; stroke-opacity: 0.3; stroke-width: 0.5; stroke-linecap: square"/>
     </g>
     <g id="line2d_35">
      <g>
       <use xlink:href="#mc6da66d18e" x="38.1" y="178.470507" style="stroke: #000000; stroke-width: 0.8"/>
      </g>
     </g>
     <g id="line2d_36">
      <g>
       <use xlink:href="#md430802e96" x="591.71625" y="178.470507" style="stroke: #000000; stroke-width: 0.8"/>
      </g>
     </g>
     <g id="text_13">
      <!-- $\mathdefault{90}$ -->
      <g transform="translate(24.6 181.995898) scale(0.1 -0.1)">
       <defs>
        <path id="Cmr10-16" d="M 722 269 
Q 897 63 1331 63 
Q 1575 63 1786 228 
Q 1997 394 2113 634 
Q 2247 906 2284 1214 
Q 2322 1522 2322 1978 
Q 2213 1719 2008 1553 
Q 1803 1388 1538 1388 
Q 1166 1388 873 1589 
Q 581 1791 425 2120 
Q 269 2450 269 2822 
Q 269 3206 444 3539 
Q 619 3872 928 4067 
Q 1238 4263 1631 4263 
Q 2019 4263 2280 4052 
Q 2541 3841 2678 3508 
Q 2816 3175 2870 2803 
Q 2925 2431 2925 2069 
Q 2925 1575 2744 1061 
Q 2563 547 2202 203 
Q 1841 -141 1331 -141 
Q 953 -141 690 37 
Q 428 216 428 575 
Q 428 706 517 795 
Q 606 884 738 884 
Q 866 884 955 795 
Q 1044 706 1044 575 
Q 1044 450 953 359 
Q 863 269 738 269 
L 722 269 
z
M 1563 1556 
Q 1825 1556 1992 1732 
Q 2159 1909 2234 2171 
Q 2309 2434 2309 2694 
L 2309 2816 
L 2309 2841 
Q 2309 3322 2168 3700 
Q 2028 4078 1631 4078 
Q 1378 4078 1220 3967 
Q 1063 3856 988 3672 
Q 913 3488 892 3278 
Q 872 3069 872 2822 
Q 872 2459 906 2203 
Q 941 1947 1094 1751 
Q 1247 1556 1563 1556 
z
" transform="scale(0.015625)"/>
       </defs>
       <use xlink:href="#Cmr10-16" transform="translate(0 0.390625)"/>
       <use xlink:href="#Cmr10-28" transform="translate(50 0.390625)"/>
      </g>
     </g>
    </g>
    <g id="ytick_5">
     <g id="line2d_37">
      <path d="M 38.1 141.528747 
L 591.71625 141.528747 
" clip-path="url(#p396935acb5)" style="fill: none; stroke: #d9d9d4; stroke-opacity: 0.3; stroke-width: 0.5; stroke-linecap: square"/>
     </g>
     <g id="line2d_38">
      <g>
       <use xlink:href="#mc6da66d18e" x="38.1" y="141.528747" style="stroke: #000000; stroke-width: 0.8"/>
      </g>
     </g>
     <g id="line2d_39">
      <g>
       <use xlink:href="#md430802e96" x="591.71625" y="141.528747" style="stroke: #000000; stroke-width: 0.8"/>
      </g>
     </g>
     <g id="text_14">
      <!-- $\mathdefault{100}$ -->
      <g transform="translate(19.6 145.054137) scale(0.1 -0.1)">
       <use xlink:href="#Cmr10-64" transform="translate(0 0.390625)"/>
       <use xlink:href="#Cmr10-28" transform="translate(50 0.390625)"/>
       <use xlink:href="#Cmr10-28" transform="translate(100 0.390625)"/>
      </g>
     </g>
    </g>
    <g id="ytick_6">
     <g id="line2d_40">
      <path d="M 38.1 104.586986 
L 591.71625 104.586986 
" clip-path="url(#p396935acb5)" style="fill: none; stroke: #d9d9d4; stroke-opacity: 0.3; stroke-width: 0.5; stroke-linecap: square"/>
     </g>
     <g id="line2d_41">
      <g>
       <use xlink:href="#mc6da66d18e" x="38.1" y="104.586986" style="stroke: #000000; stroke-width: 0.8"/>
      </g>
     </g>
     <g id="line2d_42">
      <g>
       <use xlink:href="#md430802e96" x="591.71625" y="104.586986" style="stroke: #000000; stroke-width: 0.8"/>
      </g>
     </g>
     <g id="text_15">
      <!-- $\mathdefault{110}$ -->
      <g transform="translate(19.6 108.112377) scale(0.1 -0.1)">
       <use xlink:href="#Cmr10-64" transform="translate(0 0.390625)"/>
       <use xlink:href="#Cmr10-64" transform="translate(50 0.390625)"/>
       <use xlink:href="#Cmr10-28" transform="translate(100 0.390625)"/>
      </g>
     </g>
    </g>
    <g id="ytick_7">
     <g id="line2d_43">
      <path d="M 38.1 67.645226 
L 591.71625 67.645226 
" clip-path="url(#p396935acb5)" style="fill: none; stroke: #d9d9d4; stroke-opacity: 0.3; stroke-width: 0.5; stroke-linecap: square"/>
     </g>
     <g id="line2d_44">
      <g>
       <use xlink:href="#mc6da66d18e" x="38.1" y="67.645226" style="stroke: #000000; stroke-width: 0.8"/>
      </g>
     </g>
     <g id="line2d_45">
      <g>
       <use xlink:href="#md430802e96" x="591.71625" y="67.645226" style="stroke: #000000; stroke-width: 0.8"/>
      </g>
     </g>
     <g id="text_16">
      <!-- $\mathdefault{120}$ -->
      <g transform="translate(19.6 71.170617) scale(0.1 -0.1)">
       <use xlink:href="#Cmr10-64" transform="translate(0 0.390625)"/>
       <use xlink:href="#Cmr10-31" transform="translate(50 0.390625)"/>
       <use xlink:href="#Cmr10-28" transform="translate(100 0.390625)"/>
      </g>
     </g>
    </g>
    <g id="ytick_8">
     <g id="line2d_46">
      <path d="M 38.1 30.703466 
L 591.71625 30.703466 
" clip-path="url(#p396935acb5)" style="fill: none; stroke: #d9d9d4; stroke-opacity: 0.3; stroke-width: 0.5; stroke-linecap: square"/>
     </g>
     <g id="line2d_47">
      <g>
       <use xlink:href="#mc6da66d18e" x="38.1" y="30.703466" style="stroke: #000000; stroke-width: 0.8"/>
      </g>
     </g>
     <g id="line2d_48">
      <g>
       <use xlink:href="#md430802e96" x="591.71625" y="30.703466" style="stroke: #000000; stroke-width: 0.8"/>
      </g>
     </g>
     <g id="text_17">
      <!-- $\mathdefault{130}$ -->
      <g transform="translate(19.6 34.228856) scale(0.1 -0.1)">
       <defs>
        <path id="Cmr10-6e" d="M 609 494 
Q 759 275 1012 169 
Q 1266 63 1556 63 
Q 1928 63 2084 380 
Q 2241 697 2241 1100 
Q 2241 1281 2208 1462 
Q 2175 1644 2097 1800 
Q 2019 1956 1883 2050 
Q 1747 2144 1550 2144 
L 1125 2144 
Q 1069 2144 1069 2203 
L 1069 2259 
Q 1069 2309 1125 2309 
L 1478 2338 
Q 1703 2338 1851 2506 
Q 2000 2675 2069 2917 
Q 2138 3159 2138 3378 
Q 2138 3684 1994 3881 
Q 1850 4078 1556 4078 
Q 1313 4078 1091 3986 
Q 869 3894 738 3706 
Q 750 3709 759 3711 
Q 769 3713 781 3713 
Q 925 3713 1022 3613 
Q 1119 3513 1119 3372 
Q 1119 3234 1022 3134 
Q 925 3034 781 3034 
Q 641 3034 541 3134 
Q 441 3234 441 3372 
Q 441 3647 606 3850 
Q 772 4053 1033 4158 
Q 1294 4263 1556 4263 
Q 1750 4263 1965 4205 
Q 2181 4147 2356 4039 
Q 2531 3931 2642 3762 
Q 2753 3594 2753 3378 
Q 2753 3109 2633 2881 
Q 2513 2653 2303 2487 
Q 2094 2322 1844 2241 
Q 2122 2188 2372 2031 
Q 2622 1875 2773 1631 
Q 2925 1388 2925 1106 
Q 2925 753 2731 467 
Q 2538 181 2222 20 
Q 1906 -141 1556 -141 
Q 1256 -141 954 -26 
Q 653 88 461 316 
Q 269 544 269 863 
Q 269 1022 375 1128 
Q 481 1234 641 1234 
Q 744 1234 830 1186 
Q 916 1138 964 1050 
Q 1013 963 1013 863 
Q 1013 706 903 600 
Q 794 494 641 494 
L 609 494 
z
" transform="scale(0.015625)"/>
       </defs>
       <use xlink:href="#Cmr10-64" transform="translate(0 0.390625)"/>
       <use xlink:href="#Cmr10-6e" transform="translate(50 0.390625)"/>
       <use xlink:href="#Cmr10-28" transform="translate(100 0.390625)"/>
      </g>
     </g>
    </g>
    <g id="text_18">
     <!-- ERP (dB) -->
     <g transform="translate(12.6 184.963164) rotate(-90) scale(0.12 -0.12)">
      <defs>
       <path id="Cmr10-65" d="M 197 0 
L 197 225 
Q 856 225 856 428 
L 856 3944 
Q 856 4147 197 4147 
L 197 4372 
L 3816 4372 
L 3994 2906 
L 3809 2906 
Q 3741 3459 3617 3709 
Q 3494 3959 3222 4053 
Q 2950 4147 2406 4147 
L 1778 4147 
Q 1663 4147 1598 4137 
Q 1534 4128 1493 4083 
Q 1453 4038 1453 3944 
L 1453 2381 
L 1925 2381 
Q 2250 2381 2411 2436 
Q 2572 2491 2633 2645 
Q 2694 2800 2694 3128 
L 2881 3128 
L 2881 1409 
L 2694 1409 
Q 2694 1734 2633 1890 
Q 2572 2047 2411 2101 
Q 2250 2156 1925 2156 
L 1453 2156 
L 1453 428 
Q 1453 291 1531 258 
Q 1609 225 1778 225 
L 2456 225 
Q 2900 225 3173 295 
Q 3447 366 3598 530 
Q 3750 694 3833 955 
Q 3916 1216 3988 1678 
L 4172 1678 
L 3903 0 
L 197 0 
z
" transform="scale(0.015625)"/>
       <path id="Cmr10-69" d="M 213 0 
L 213 225 
Q 872 225 872 428 
L 872 3944 
Q 872 4147 213 4147 
L 213 4372 
L 2222 4372 
Q 2581 4372 2976 4242 
Q 3372 4113 3637 3847 
Q 3903 3581 3903 3213 
Q 3903 2944 3742 2733 
Q 3581 2522 3329 2380 
Q 3078 2238 2816 2175 
Q 3103 2075 3318 1856 
Q 3534 1638 3578 1356 
L 3669 788 
Q 3731 403 3800 214 
Q 3869 25 4103 25 
Q 4303 25 4401 211 
Q 4500 397 4500 616 
Q 4500 638 4520 655 
Q 4541 672 4563 672 
L 4622 672 
Q 4684 672 4684 588 
Q 4684 413 4615 245 
Q 4547 78 4417 -31 
Q 4288 -141 4109 -141 
Q 3647 -141 3314 89 
Q 2981 319 2981 763 
L 2981 1331 
Q 2981 1650 2759 1878 
Q 2538 2106 2216 2106 
L 1447 2106 
L 1447 428 
Q 1447 225 2106 225 
L 2106 0 
L 213 0 
z
M 1447 2272 
L 2131 2272 
Q 2663 2272 2941 2486 
Q 3219 2700 3219 3213 
Q 3219 3722 2944 3934 
Q 2669 4147 2131 4147 
L 1772 4147 
Q 1656 4147 1592 4137 
Q 1528 4128 1487 4083 
Q 1447 4038 1447 3944 
L 1447 2272 
z
" transform="scale(0.015625)"/>
       <path id="Cmr10-5f" d="M 213 0 
L 213 225 
Q 872 225 872 428 
L 872 3944 
Q 872 4147 213 4147 
L 213 4372 
L 2491 4372 
Q 2841 4372 3191 4228 
Q 3541 4084 3767 3809 
Q 3994 3534 3994 3169 
Q 3994 2813 3766 2544 
Q 3538 2275 3191 2136 
Q 2844 1997 2491 1997 
L 1466 1997 
L 1466 428 
Q 1466 225 2125 225 
L 2125 0 
L 213 0 
z
M 1447 2188 
L 2316 2188 
Q 2669 2188 2887 2289 
Q 3106 2391 3207 2605 
Q 3309 2819 3309 3169 
Q 3309 3691 3079 3919 
Q 2850 4147 2316 4147 
L 1772 4147 
Q 1656 4147 1592 4137 
Q 1528 4128 1487 4083 
Q 1447 4038 1447 3944 
L 1447 2188 
z
" transform="scale(0.015625)"/>
       <path id="Cmr10-49" d="M 1563 -72 
Q 1184 -72 871 133 
Q 559 338 386 672 
Q 213 1006 213 1381 
Q 213 1769 402 2101 
Q 591 2434 916 2631 
Q 1241 2828 1631 2828 
Q 1866 2828 2075 2729 
Q 2284 2631 2438 2456 
L 2438 3788 
Q 2438 3959 2386 4036 
Q 2334 4113 2239 4130 
Q 2144 4147 1941 4147 
L 1941 4372 
L 2888 4441 
L 2888 581 
Q 2888 413 2939 336 
Q 2991 259 3086 242 
Q 3181 225 3384 225 
L 3384 0 
L 2419 -72 
L 2419 331 
Q 2253 141 2025 34 
Q 1797 -72 1563 -72 
z
M 909 556 
Q 1019 347 1201 222 
Q 1384 97 1600 97 
Q 1866 97 2087 250 
Q 2309 403 2419 647 
L 2419 2181 
Q 2344 2322 2230 2433 
Q 2116 2544 1973 2603 
Q 1831 2663 1672 2663 
Q 1338 2663 1134 2473 
Q 931 2284 850 1990 
Q 769 1697 769 1375 
Q 769 1119 795 928 
Q 822 738 909 556 
z
" transform="scale(0.015625)"/>
       <path id="Cmr10-20" d="M 219 0 
L 219 225 
Q 878 225 878 428 
L 878 3944 
Q 878 4147 219 4147 
L 219 4372 
L 2572 4372 
Q 2897 4372 3228 4245 
Q 3559 4119 3776 3870 
Q 3994 3622 3994 3284 
Q 3994 2894 3673 2630 
Q 3353 2366 2925 2284 
Q 3203 2284 3497 2131 
Q 3791 1978 3978 1722 
Q 4166 1466 4166 1178 
Q 4166 828 3958 559 
Q 3750 291 3419 145 
Q 3088 0 2753 0 
L 219 0 
z
M 1434 428 
Q 1434 291 1512 258 
Q 1591 225 1759 225 
L 2572 225 
Q 2822 225 3036 356 
Q 3250 488 3375 708 
Q 3500 928 3500 1178 
Q 3500 1422 3397 1655 
Q 3294 1888 3101 2038 
Q 2909 2188 2663 2188 
L 1434 2188 
L 1434 428 
z
M 1434 2356 
L 2394 2356 
Q 2588 2356 2758 2426 
Q 2928 2497 3064 2630 
Q 3200 2763 3273 2930 
Q 3347 3097 3347 3284 
Q 3347 3450 3292 3603 
Q 3238 3756 3131 3881 
Q 3025 4006 2881 4076 
Q 2738 4147 2572 4147 
L 1759 4147 
Q 1644 4147 1580 4137 
Q 1516 4128 1475 4083 
Q 1434 4038 1434 3944 
L 1434 2356 
z
" transform="scale(0.015625)"/>
      </defs>
      <use xlink:href="#Cmr10-65"/>
      <use xlink:href="#Cmr10-69" transform="translate(68.015625 0)"/>
      <use xlink:href="#Cmr10-5f" transform="translate(141.59375 0)"/>
      <use xlink:href="#Cmr10-53" transform="translate(209.609375 0)"/>
      <use xlink:href="#Cmr10-77" transform="translate(242.90625 0)"/>
      <use xlink:href="#Cmr10-49" transform="translate(281.71875 0)"/>
      <use xlink:href="#Cmr10-20" transform="translate(337.234375 0)"/>
      <use xlink:href="#Cmr10-44" transform="translate(408.03125 0)"/>
     </g>
    </g>
   </g>
   <g id="line2d_49">
    <path d="M 63.264375 280.140643 
L 66.619625 276.836221 
L 69.974875 273.771732 
L 75.00775 269.532245 
L 80.040625 265.626636 
L 85.0735 261.97467 
L 91.784 257.396204 
L 100.172125 251.988066 
L 113.593125 243.676279 
L 125.3365 236.350761 
L 133.724625 230.848731 
L 140.435125 226.138657 
L 145.468 222.337609 
L 150.500875 218.217997 
L 153.856125 215.240588 
L 157.211375 212.027117 
L 160.566625 208.517776 
L 163.921875 204.631033 
L 167.277125 200.25157 
L 170.632375 195.208617 
L 172.31 192.360192 
L 173.987625 189.233729 
L 175.66525 185.765663 
L 177.342875 181.868863 
L 179.0205 177.419331 
L 180.698125 172.231938 
L 182.37575 166.012113 
L 184.053375 158.247645 
L 185.731 147.920952 
L 187.408625 132.496347 
L 189.08625 101.419965 
L 190.763875 87.162745 
L 192.4415 127.975405 
L 194.119125 145.389912 
L 195.79675 156.601368 
L 197.474375 164.853656 
L 199.152 171.346689 
L 200.829625 176.652638 
L 202.50725 181.083712 
L 204.184875 184.823671 
L 205.8625 187.984622 
L 207.540125 190.63498 
L 209.21775 192.814727 
L 210.895375 194.544569 
L 212.573 195.831949 
L 214.250625 196.675301 
L 215.92825 197.067129 
L 217.605875 196.99605 
L 219.2835 196.447683 
L 220.961125 195.404109 
L 222.63875 193.841576 
L 224.316375 191.725966 
L 225.994 189.005183 
L 227.671625 185.596713 
L 229.34925 181.366288 
L 231.026875 176.08794 
L 232.7045 169.359449 
L 234.382125 160.391909 
L 236.05975 147.342061 
L 237.737375 123.974332 
L 239.415 53.620104 
L 241.092625 130.766573 
L 242.77025 152.047424 
L 244.447875 165.033593 
L 246.1255 174.492421 
L 247.803125 181.984714 
L 249.48075 188.207138 
L 251.158375 193.513446 
L 252.836 198.082293 
L 254.513625 201.980653 
L 256.19125 205.189636 
L 257.868875 207.619469 
L 259.5465 209.131024 
L 261.224125 209.575415 
L 262.90175 208.847705 
L 264.579375 206.928507 
L 266.257 203.883299 
L 267.934625 199.817614 
L 269.61225 194.815686 
L 271.289875 188.886756 
L 272.9675 181.917253 
L 274.645125 173.599193 
L 276.32275 163.258356 
L 278.000375 149.316103 
L 279.678 126.814546 
L 281.355625 39.133693 
L 283.03325 120.553641 
L 284.710875 142.741415 
L 286.3885 155.064082 
L 288.066125 163.486667 
L 289.74375 169.816297 
L 291.421375 174.844408 
L 293.099 178.988019 
L 294.776625 182.493368 
L 296.45425 185.517591 
L 298.131875 188.1668 
L 299.8095 190.515785 
L 301.487125 192.619066 
L 303.16475 194.517463 
L 306.52 197.817621 
L 309.87525 200.593327 
L 313.2305 202.956399 
L 316.58575 204.978619 
L 319.941 206.703985 
L 323.29625 208.153166 
L 326.6515 209.320326 
L 330.00675 210.155925 
L 331.684375 210.40969 
L 333.362 210.508436 
L 335.039625 210.382797 
L 336.71725 209.897574 
L 338.394875 208.7606 
L 340.0725 206.241324 
L 341.750125 200.073167 
L 343.42775 179.81652 
L 345.105375 166.09406 
L 346.783 204.310011 
L 348.460625 213.258554 
L 350.13825 216.087138 
L 351.815875 217.189803 
L 353.4935 217.691365 
L 355.171125 217.938666 
L 358.526375 218.097539 
L 361.881625 218.022443 
L 365.236875 217.782886 
L 368.592125 217.390428 
L 371.947375 216.840743 
L 375.302625 216.123607 
L 378.657875 215.225465 
L 382.013125 214.129825 
L 385.368375 212.816801 
L 388.723625 211.262086 
L 392.078875 209.435326 
L 395.434125 207.297637 
L 398.789375 204.797762 
L 402.144625 201.865923 
L 405.499875 198.403569 
L 407.1775 196.430585 
L 408.855125 194.265206 
L 410.53275 191.876307 
L 412.210375 189.223765 
L 413.888 186.254705 
L 415.565625 182.897557 
L 417.24325 179.052243 
L 418.920875 174.572925 
L 420.5985 169.235413 
L 422.276125 162.669125 
L 423.95375 154.194108 
L 425.631375 142.339783 
L 427.309 122.783063 
L 428.986625 61.197724 
L 430.66425 112.767589 
L 432.341875 138.250893 
L 434.0195 152.421337 
L 435.697125 162.269817 
L 437.37475 169.766164 
L 439.052375 175.72302 
L 440.73 180.526628 
L 442.407625 184.358611 
L 444.08525 187.281809 
L 445.762875 189.281301 
L 447.4405 190.291066 
L 449.118125 190.217486 
L 450.79575 188.959908 
L 452.473375 186.419757 
L 454.151 182.485185 
L 455.828625 176.97735 
L 457.50625 169.532945 
L 459.183875 159.328939 
L 460.8615 144.203755 
L 464.21675 87.420682 
L 465.894375 133.226023 
L 467.572 150.838119 
L 469.249625 161.683003 
L 470.92725 169.42304 
L 472.604875 175.380122 
L 474.2825 180.18332 
L 475.960125 184.181301 
L 477.63775 187.587152 
L 479.315375 190.540287 
L 480.993 193.136631 
L 482.670625 195.444797 
L 484.34825 197.515394 
L 486.025875 199.386701 
L 489.381125 202.643344 
L 492.736375 205.384487 
L 496.091625 207.720211 
L 499.446875 209.724915 
L 502.802125 211.450366 
L 506.157375 212.93325 
L 509.512625 214.199763 
L 512.867875 215.268518 
L 516.223125 216.152442 
L 519.578375 216.860056 
L 522.933625 217.396339 
L 526.288875 217.763336 
L 529.644125 217.96057 
L 532.999375 217.985321 
L 536.354625 217.832794 
L 539.709875 217.496191 
L 543.065125 216.96669 
L 546.420375 216.233315 
L 549.775625 215.282675 
L 553.130875 214.098529 
L 556.486125 212.66111 
L 559.841375 210.9461 
L 563.196625 208.923095 
L 566.551875 206.553289 
L 566.551875 206.553289 
" clip-path="url(#p396935acb5)" style="fill: none; stroke: #000000; stroke-width: 2.6; stroke-linecap: square"/>
   </g>
   <g id="line2d_50">
    <path d="M 63.264375 277.673925 
L 64.942 276.355801 
L 66.619625 274.741797 
L 76.685375 266.91484 
L 83.395875 261.914462 
L 90.106375 257.169208 
L 96.816875 252.699061 
L 103.527375 248.475498 
L 115.27075 241.42564 
L 125.3365 235.331822 
L 132.047 231.029118 
L 138.7575 226.407537 
L 143.790375 222.666547 
L 148.82325 218.626775 
L 153.856125 214.219507 
L 157.211375 211.020417 
L 160.566625 207.569359 
L 163.921875 203.804243 
L 167.277125 199.637416 
L 170.632375 194.918824 
L 172.31 192.27085 
L 173.987625 189.363186 
L 175.66525 186.120466 
L 177.342875 182.435873 
L 179.0205 178.152081 
L 180.698125 173.028424 
L 182.37575 166.703523 
L 184.053375 158.533845 
L 185.731 146.61365 
L 187.408625 123.085797 
L 189.08625 80.973143 
L 190.763875 62.51224 
L 194.119125 139.208754 
L 195.79675 152.177434 
L 197.474375 160.899778 
L 199.152 168.46479 
L 200.829625 174.652658 
L 202.50725 179.667777 
L 204.184875 183.688779 
L 205.8625 186.817972 
L 207.540125 189.147181 
L 209.21775 190.770655 
L 210.895375 191.798847 
L 212.573 192.340691 
L 214.250625 192.461179 
L 215.92825 192.181562 
L 217.605875 191.514383 
L 219.2835 190.455328 
L 220.961125 188.986981 
L 222.63875 187.092995 
L 224.316375 184.762264 
L 225.994 181.995465 
L 227.671625 178.754154 
L 229.34925 174.721372 
L 231.026875 168.509434 
L 232.7045 155.910025 
L 234.382125 130.786714 
L 236.05975 97.227523 
L 237.737375 76.492737 
L 239.415 83.478335 
L 241.092625 111.099652 
L 242.77025 143.58702 
L 244.447875 167.865168 
L 246.1255 179.471558 
L 247.803125 183.544588 
L 249.48075 185.101321 
L 251.158375 186.23016 
L 252.836 187.564011 
L 254.513625 189.185709 
L 256.19125 191.047594 
L 259.5465 195.264138 
L 262.90175 200.05305 
L 264.579375 202.617288 
L 266.257 204.904531 
L 267.934625 206.004762 
L 269.61225 204.332276 
L 271.289875 198.198747 
L 272.9675 187.044461 
L 274.645125 171.09946 
L 278.000375 132.466218 
L 279.678 116.725807 
L 281.355625 107.220445 
L 283.03325 105.453288 
L 284.710875 111.747553 
L 286.3885 124.39899 
L 289.74375 154.328828 
L 291.421375 165.854414 
L 293.099 174.088042 
L 294.776625 179.67271 
L 296.45425 183.401412 
L 298.131875 186.269787 
L 303.16475 193.959176 
L 304.842375 196.059923 
L 306.52 197.809408 
L 308.197625 199.300867 
L 309.87525 200.566061 
L 311.552875 201.65547 
L 314.908125 203.306705 
L 316.58575 203.789249 
L 318.263375 203.661827 
L 319.941 202.797499 
L 321.618625 202.077192 
L 323.29625 201.715784 
L 326.6515 200.642779 
L 330.00675 199.172092 
L 333.362 197.25894 
L 335.039625 196.150225 
L 336.71725 194.660684 
L 338.394875 192.481443 
L 340.0725 190.072332 
L 341.750125 187.990355 
L 345.105375 185.019643 
L 346.783 183.557468 
L 348.460625 182.452953 
L 350.13825 182.302758 
L 351.815875 183.595658 
L 353.4935 186.093268 
L 361.881625 201.217288 
L 363.55925 203.693873 
L 365.236875 205.84259 
L 366.9145 207.656167 
L 368.592125 209.143566 
L 370.26975 210.330042 
L 371.947375 211.199895 
L 373.625 211.741372 
L 375.302625 212.019157 
L 376.98025 212.055402 
L 380.3355 211.745712 
L 383.69075 211.202206 
L 387.046 210.378519 
L 390.40125 209.191198 
L 392.078875 208.422076 
L 393.7565 207.502759 
L 395.434125 206.390211 
L 397.11175 205.056388 
L 398.789375 203.497964 
L 400.467 201.670577 
L 402.144625 199.550382 
L 403.82225 197.048178 
L 405.499875 193.985556 
L 407.1775 190.254543 
L 408.855125 185.74491 
L 410.53275 180.328446 
L 412.210375 173.832156 
L 413.888 166.076393 
L 415.565625 156.944192 
L 417.24325 146.502886 
L 420.5985 124.211564 
L 422.276125 114.54992 
L 423.95375 107.459928 
L 425.631375 103.673251 
L 427.309 103.604537 
L 428.986625 107.239075 
L 430.66425 114.093757 
L 432.341875 123.277648 
L 435.697125 144.968672 
L 439.052375 167.086773 
L 440.73 176.301582 
L 442.407625 183.359473 
L 444.08525 188.359683 
L 445.762875 191.65925 
L 447.4405 193.66014 
L 449.118125 194.631682 
L 450.79575 194.877055 
L 452.473375 194.428163 
L 454.151 193.006207 
L 455.828625 190.670008 
L 457.50625 187.445693 
L 459.183875 183.295664 
L 460.8615 178.158056 
L 462.539125 172.160008 
L 465.894375 159.261141 
L 467.572 153.563792 
L 469.249625 149.412213 
L 470.92725 147.615096 
L 472.604875 148.45699 
L 474.2825 151.530688 
L 475.960125 156.215628 
L 482.670625 178.551368 
L 484.34825 183.18442 
L 486.025875 187.279378 
L 487.7035 190.807661 
L 489.381125 193.738774 
L 491.05875 196.138839 
L 492.736375 198.107148 
L 494.414 199.744657 
L 496.091625 201.131467 
L 499.446875 203.384381 
L 502.802125 205.191757 
L 521.256 214.052543 
L 524.61125 215.334423 
L 527.9665 216.40616 
L 531.32175 217.137825 
L 534.677 217.638689 
L 538.03225 217.969403 
L 541.3875 218.105111 
L 544.74275 218.028111 
L 548.098 217.679415 
L 551.45325 217.014068 
L 554.8085 215.971135 
L 558.16375 214.464992 
L 561.519 212.508408 
L 563.196625 211.390054 
L 564.87425 209.939576 
L 566.551875 208.279237 
L 566.551875 208.279237 
" clip-path="url(#p396935acb5)" style="fill: none; stroke-dasharray: 7.03,3.04; stroke-dashoffset: 0; stroke: #d62728; stroke-width: 1.9"/>
   </g>
   <g id="line2d_51">
    <path d="M 299.859008 296.684141 
L 299.859008 19.620937 
" clip-path="url(#p396935acb5)" style="fill: none; stroke-dasharray: 1,1.65; stroke-dashoffset: 0; stroke: #c2412c"/>
   </g>
   <g id="line2d_52">
    <path d="M 467.769211 296.684141 
L 467.769211 19.620937 
" clip-path="url(#p396935acb5)" style="fill: none; stroke-dasharray: 1,1.65; stroke-dashoffset: 0; stroke: #c2412c"/>
   </g>
   <g id="line2d_53">
    <path d="M 561.77304 296.684141 
L 561.77304 19.620937 
" clip-path="url(#p396935acb5)" style="fill: none; stroke-dasharray: 1,1.65; stroke-dashoffset: 0; stroke: #c2412c"/>
   </g>
   <g id="patch_3">
    <path d="M 38.1 296.684141 
L 38.1 19.620937 
" style="fill: none; stroke: #000000; stroke-width: 0.8; stroke-linejoin: miter; stroke-linecap: square"/>
   </g>
   <g id="patch_4">
    <path d="M 591.71625 296.684141 
L 591.71625 19.620937 
" style="fill: none; stroke: #000000; stroke-width: 0.8; stroke-linejoin: miter; stroke-linecap: square"/>
   </g>
   <g id="patch_5">
    <path d="M 38.1 296.684141 
L 591.71625 296.684141 
" style="fill: none; stroke: #000000; stroke-width: 0.8; stroke-linejoin: miter; stroke-linecap: square"/>
   </g>
   <g id="patch_6">
    <path d="M 38.1 19.620937 
L 591.71625 19.620937 
" style="fill: none; stroke: #000000; stroke-width: 0.8; stroke-linejoin: miter; stroke-linecap: square"/>
   </g>
   <g id="text_19">
    <!-- Added peak term in the loss -->
    <g transform="translate(228.174844 13.620937) scale(0.14 -0.14)">
     <defs>
      <path id="Cmr10-56" d="M 206 0 
L 206 225 
Q 778 225 909 603 
L 2253 4513 
Q 2272 4581 2356 4581 
L 2438 4581 
Q 2522 4581 2541 4513 
L 3944 428 
Q 4003 294 4170 259 
Q 4338 225 4588 225 
L 4588 0 
L 2803 0 
L 2803 225 
Q 3334 225 3334 397 
L 3334 428 
L 2988 1428 
L 1434 1428 
L 1147 603 
Q 1141 581 1141 538 
Q 1141 378 1292 301 
Q 1444 225 1619 225 
L 1619 0 
L 206 0 
z
M 1509 1650 
L 2913 1650 
L 2209 3694 
L 1509 1650 
z
" transform="scale(0.015625)"/>
      <path id="Cmr10-7d" d="M 166 -1241 
L 166 -1019 
Q 384 -1019 525 -981 
Q 666 -944 666 -813 
L 666 2272 
Q 666 2447 541 2490 
Q 416 2534 166 2534 
L 166 2759 
L 1113 2828 
L 1113 2431 
Q 1288 2625 1520 2726 
Q 1753 2828 2016 2828 
Q 2394 2828 2697 2623 
Q 3000 2419 3170 2086 
Q 3341 1753 3341 1381 
Q 3341 994 3152 659 
Q 2963 325 2636 126 
Q 2309 -72 1919 -72 
Q 1453 -72 1131 306 
L 1131 -813 
Q 1131 -944 1273 -981 
Q 1416 -1019 1631 -1019 
L 1631 -1241 
L 166 -1241 
z
M 1131 622 
Q 1244 394 1444 245 
Q 1644 97 1881 97 
Q 2103 97 2273 215 
Q 2444 334 2559 534 
Q 2675 734 2729 954 
Q 2784 1175 2784 1381 
Q 2784 1638 2692 1936 
Q 2600 2234 2411 2439 
Q 2222 2644 1953 2644 
Q 1694 2644 1476 2511 
Q 1259 2378 1131 2150 
L 1131 622 
z
" transform="scale(0.015625)"/>
      <path id="Cmr10-73" d="M 256 628 
Q 256 1009 556 1248 
Q 856 1488 1276 1586 
Q 1697 1684 2075 1684 
L 2075 1947 
Q 2075 2131 1994 2304 
Q 1913 2478 1759 2589 
Q 1606 2700 1422 2700 
Q 997 2700 775 2509 
Q 897 2509 976 2417 
Q 1056 2325 1056 2203 
Q 1056 2075 965 1984 
Q 875 1894 750 1894 
Q 622 1894 531 1984 
Q 441 2075 441 2203 
Q 441 2541 747 2705 
Q 1053 2869 1422 2869 
Q 1681 2869 1943 2758 
Q 2206 2647 2373 2440 
Q 2541 2234 2541 1959 
L 2541 519 
Q 2541 394 2594 289 
Q 2647 184 2759 184 
Q 2866 184 2917 290 
Q 2969 397 2969 519 
L 2969 928 
L 3156 928 
L 3156 519 
Q 3156 375 3081 245 
Q 3006 116 2879 39 
Q 2753 -38 2606 -38 
Q 2419 -38 2283 107 
Q 2147 253 2131 453 
Q 2013 213 1781 70 
Q 1550 -72 1288 -72 
Q 1044 -72 808 0 
Q 572 72 414 226 
Q 256 381 256 628 
z
M 775 628 
Q 775 403 940 250 
Q 1106 97 1331 97 
Q 1538 97 1706 200 
Q 1875 303 1975 481 
Q 2075 659 2075 856 
L 2075 1522 
Q 1784 1522 1479 1426 
Q 1175 1331 975 1128 
Q 775 925 775 628 
z
" transform="scale(0.015625)"/>
      <path id="Cmr10-2c" d="M 166 0 
L 166 225 
Q 384 225 525 259 
Q 666 294 666 428 
L 666 3788 
Q 666 3959 614 4036 
Q 563 4113 466 4130 
Q 369 4147 166 4147 
L 166 4372 
L 1113 4441 
L 1113 1403 
L 1972 2156 
Q 2100 2278 2100 2381 
Q 2100 2456 2047 2495 
Q 1994 2534 1919 2534 
L 1919 2759 
L 3122 2759 
L 3122 2534 
Q 2688 2534 2253 2156 
L 1797 1759 
L 2613 603 
Q 2781 363 2895 294 
Q 3009 225 3272 225 
L 3272 0 
L 1997 0 
L 1997 225 
Q 2216 225 2216 359 
Q 2216 456 2100 603 
L 1484 1478 
L 1094 1141 
L 1094 428 
Q 1094 294 1236 259 
Q 1378 225 1594 225 
L 1594 0 
L 166 0 
z
" transform="scale(0.015625)"/>
      <path id="Cmr10-1c" d="M 653 769 
L 653 2534 
L 122 2534 
L 122 2700 
Q 541 2700 737 3090 
Q 934 3481 934 3938 
L 1119 3938 
L 1119 2759 
L 2022 2759 
L 2022 2534 
L 1119 2534 
L 1119 781 
Q 1119 516 1208 316 
Q 1297 116 1528 116 
Q 1747 116 1844 327 
Q 1941 538 1941 781 
L 1941 1159 
L 2125 1159 
L 2125 769 
Q 2125 569 2051 373 
Q 1978 178 1834 53 
Q 1691 -72 1484 -72 
Q 1100 -72 876 158 
Q 653 388 653 769 
z
" transform="scale(0.015625)"/>
      <path id="Cmr10-38" d="M 191 0 
L 191 225 
Q 409 225 550 259 
Q 691 294 691 428 
L 691 2175 
Q 691 2347 639 2423 
Q 588 2500 491 2517 
Q 394 2534 191 2534 
L 191 2759 
L 1119 2828 
L 1119 2203 
Q 1247 2478 1498 2653 
Q 1750 2828 2047 2828 
Q 2784 2828 2913 2228 
Q 3041 2497 3287 2662 
Q 3534 2828 3828 2828 
Q 4119 2828 4317 2734 
Q 4516 2641 4616 2448 
Q 4716 2256 4716 1966 
L 4716 428 
Q 4716 294 4858 259 
Q 5000 225 5216 225 
L 5216 0 
L 3750 0 
L 3750 225 
Q 3969 225 4109 259 
Q 4250 294 4250 428 
L 4250 1947 
Q 4250 2269 4159 2466 
Q 4069 2663 3788 2663 
Q 3419 2663 3178 2366 
Q 2938 2069 2938 1691 
L 2938 428 
Q 2938 294 3078 259 
Q 3219 225 3438 225 
L 3438 0 
L 1972 0 
L 1972 225 
Q 2191 225 2331 259 
Q 2472 294 2472 428 
L 2472 1947 
Q 2472 2259 2381 2461 
Q 2291 2663 2009 2663 
Q 1638 2663 1398 2366 
Q 1159 2069 1159 1691 
L 1159 428 
Q 1159 294 1300 259 
Q 1441 225 1656 225 
L 1656 0 
L 191 0 
z
" transform="scale(0.015625)"/>
      <path id="Cmr10-24" d="M 197 0 
L 197 225 
Q 416 225 556 259 
Q 697 294 697 428 
L 697 2175 
Q 697 2422 601 2478 
Q 506 2534 225 2534 
L 225 2759 
L 1147 2828 
L 1147 428 
Q 1147 294 1269 259 
Q 1391 225 1594 225 
L 1594 0 
L 197 0 
z
M 469 3928 
Q 469 4069 575 4175 
Q 681 4281 819 4281 
Q 909 4281 993 4234 
Q 1078 4188 1125 4103 
Q 1172 4019 1172 3928 
Q 1172 3791 1065 3684 
Q 959 3578 819 3578 
Q 681 3578 575 3684 
Q 469 3791 469 3928 
z
" transform="scale(0.015625)"/>
      <path id="Cmr10-59" d="M 191 0 
L 191 225 
Q 409 225 550 259 
Q 691 294 691 428 
L 691 3788 
Q 691 3959 639 4036 
Q 588 4113 491 4130 
Q 394 4147 191 4147 
L 191 4372 
L 1141 4441 
L 1141 2241 
Q 1275 2506 1515 2667 
Q 1756 2828 2047 2828 
Q 2491 2828 2714 2615 
Q 2938 2403 2938 1966 
L 2938 428 
Q 2938 294 3078 259 
Q 3219 225 3438 225 
L 3438 0 
L 1972 0 
L 1972 225 
Q 2191 225 2331 259 
Q 2472 294 2472 428 
L 2472 1947 
Q 2472 2259 2381 2461 
Q 2291 2663 2009 2663 
Q 1638 2663 1398 2366 
Q 1159 2069 1159 1691 
L 1159 428 
Q 1159 294 1300 259 
Q 1441 225 1656 225 
L 1656 0 
L 191 0 
z
" transform="scale(0.015625)"/>
      <path id="Cmr10-6a" d="M 197 0 
L 197 225 
Q 416 225 556 259 
Q 697 294 697 428 
L 697 3788 
Q 697 3959 645 4036 
Q 594 4113 497 4130 
Q 400 4147 197 4147 
L 197 4372 
L 1147 4441 
L 1147 428 
Q 1147 294 1287 259 
Q 1428 225 1644 225 
L 1644 0 
L 197 0 
z
" transform="scale(0.015625)"/>
      <path id="Cmr10-42" d="M 1600 -72 
Q 1216 -72 887 123 
Q 559 319 368 647 
Q 178 975 178 1363 
Q 178 1656 283 1928 
Q 388 2200 583 2414 
Q 778 2628 1037 2748 
Q 1297 2869 1600 2869 
Q 1994 2869 2317 2661 
Q 2641 2453 2828 2104 
Q 3016 1756 3016 1363 
Q 3016 978 2825 648 
Q 2634 319 2307 123 
Q 1981 -72 1600 -72 
z
M 1600 116 
Q 2113 116 2284 487 
Q 2456 859 2456 1434 
Q 2456 1756 2422 1967 
Q 2388 2178 2272 2350 
Q 2200 2456 2089 2536 
Q 1978 2616 1854 2658 
Q 1731 2700 1600 2700 
Q 1400 2700 1220 2609 
Q 1041 2519 922 2350 
Q 803 2169 770 1951 
Q 738 1734 738 1434 
Q 738 1075 800 789 
Q 863 503 1052 309 
Q 1241 116 1600 116 
z
" transform="scale(0.015625)"/>
      <path id="Cmr10-52" d="M 213 -19 
L 213 1025 
Q 213 1075 269 1075 
L 347 1075 
Q 384 1075 397 1025 
Q 575 97 1259 97 
Q 1563 97 1767 234 
Q 1972 372 1972 659 
Q 1972 866 1812 1011 
Q 1653 1156 1434 1209 
L 1006 1294 
Q 791 1341 614 1437 
Q 438 1534 325 1695 
Q 213 1856 213 2069 
Q 213 2350 361 2529 
Q 509 2709 746 2789 
Q 984 2869 1259 2869 
Q 1588 2869 1831 2694 
L 2016 2853 
Q 2016 2869 2047 2869 
L 2094 2869 
Q 2113 2869 2128 2851 
Q 2144 2834 2144 2816 
L 2144 1978 
Q 2144 1919 2094 1919 
L 2016 1919 
Q 1959 1919 1959 1978 
Q 1959 2313 1773 2516 
Q 1588 2719 1253 2719 
Q 966 2719 755 2612 
Q 544 2506 544 2247 
Q 544 2069 695 1955 
Q 847 1841 1050 1791 
L 1484 1709 
Q 1703 1659 1892 1540 
Q 2081 1422 2192 1240 
Q 2303 1059 2303 831 
Q 2303 600 2223 429 
Q 2144 259 2001 146 
Q 1859 34 1665 -19 
Q 1472 -72 1259 -72 
Q 859 -72 575 197 
L 341 -56 
Q 341 -72 306 -72 
L 269 -72 
Q 213 -72 213 -19 
z
" transform="scale(0.015625)"/>
     </defs>
     <use xlink:href="#Cmr10-56"/>
     <use xlink:href="#Cmr10-49" transform="translate(75 0)"/>
     <use xlink:href="#Cmr10-49" transform="translate(130.515625 0)"/>
     <use xlink:href="#Cmr10-82" transform="translate(186.03125 0)"/>
     <use xlink:href="#Cmr10-49" transform="translate(230.421875 0)"/>
     <use xlink:href="#Cmr10-53" transform="translate(285.9375 0)"/>
     <use xlink:href="#Cmr10-7d" transform="translate(319.234375 0)"/>
     <use xlink:href="#Cmr10-82" transform="translate(374.75 0)"/>
     <use xlink:href="#Cmr10-73" transform="translate(419.140625 0)"/>
     <use xlink:href="#Cmr10-2c" transform="translate(469.140625 0)"/>
     <use xlink:href="#Cmr10-53" transform="translate(521.828125 0)"/>
     <use xlink:href="#Cmr10-1c" transform="translate(555.125 0)"/>
     <use xlink:href="#Cmr10-82" transform="translate(593.9375 0)"/>
     <use xlink:href="#Cmr10-84" transform="translate(638.328125 0)"/>
     <use xlink:href="#Cmr10-38" transform="translate(677.4375 0)"/>
     <use xlink:href="#Cmr10-53" transform="translate(760.734375 0)"/>
     <use xlink:href="#Cmr10-24" transform="translate(794.03125 0)"/>
     <use xlink:href="#Cmr10-74" transform="translate(821.71875 0)"/>
     <use xlink:href="#Cmr10-53" transform="translate(877.234375 0)"/>
     <use xlink:href="#Cmr10-1c" transform="translate(910.53125 0)"/>
     <use xlink:href="#Cmr10-59" transform="translate(949.34375 0)"/>
     <use xlink:href="#Cmr10-82" transform="translate(1004.859375 0)"/>
     <use xlink:href="#Cmr10-53" transform="translate(1049.25 0)"/>
     <use xlink:href="#Cmr10-6a" transform="translate(1082.546875 0)"/>
     <use xlink:href="#Cmr10-42" transform="translate(1110.234375 0)"/>
     <use xlink:href="#Cmr10-52" transform="translate(1160.234375 0)"/>
     <use xlink:href="#Cmr10-52" transform="translate(1199.640625 0)"/>
    </g>
   </g>
   <g id="legend_1">
    <g id="line2d_54">
     <path d="M 445.488437 264.66168 
L 456.488437 264.66168 
L 467.488437 264.66168 
" style="fill: none; stroke: #000000; stroke-width: 2.6; stroke-linecap: square"/>
    </g>
    <g id="text_20">
     <!-- Ground truth (solver) -->
     <g transform="translate(476.288437 268.51168) scale(0.11 -0.11)">
      <defs>
       <path id="Cmr10-70" d="M 1472 684 
Q 1703 403 2036 243 
Q 2369 84 2731 84 
Q 3088 84 3378 265 
Q 3669 447 3669 781 
L 3669 1319 
Q 3669 1522 2869 1522 
L 2869 1747 
L 4703 1747 
L 4703 1522 
Q 4500 1522 4381 1487 
Q 4263 1453 4263 1319 
L 4263 56 
Q 4263 34 4245 17 
Q 4228 0 4206 0 
Q 4147 0 4008 140 
Q 3869 281 3788 391 
Q 3631 122 3297 -9 
Q 2963 -141 2597 -141 
Q 1975 -141 1464 179 
Q 953 500 656 1036 
Q 359 1572 359 2188 
Q 359 2641 531 3069 
Q 703 3497 1011 3822 
Q 1319 4147 1728 4330 
Q 2138 4513 2597 4513 
Q 2928 4513 3223 4370 
Q 3519 4228 3750 3969 
L 4122 4494 
Q 4159 4513 4166 4513 
L 4213 4513 
Q 4231 4513 4247 4497 
Q 4263 4481 4263 4459 
L 4263 2731 
Q 4263 2675 4213 2675 
L 4097 2675 
Q 4038 2675 4038 2731 
Q 4038 2916 3964 3144 
Q 3891 3372 3777 3576 
Q 3663 3781 3513 3938 
Q 3153 4288 2688 4288 
Q 2331 4288 2006 4128 
Q 1681 3969 1459 3688 
Q 1225 3388 1134 3005 
Q 1044 2622 1044 2188 
Q 1044 1206 1472 684 
z
" transform="scale(0.015625)"/>
       <path id="Cmr10-25" d="M 1563 0 
L 628 2350 
Q 569 2469 445 2501 
Q 322 2534 122 2534 
L 122 2759 
L 1466 2759 
L 1466 2534 
Q 1106 2534 1106 2381 
Q 1106 2356 1113 2344 
L 1831 538 
L 2478 2169 
Q 2497 2219 2497 2272 
Q 2497 2394 2405 2464 
Q 2313 2534 2188 2534 
L 2188 2759 
L 3250 2759 
L 3250 2534 
Q 3053 2534 2904 2443 
Q 2756 2353 2675 2175 
L 1813 0 
Q 1788 -72 1709 -72 
L 1663 -72 
Q 1584 -72 1563 0 
z
" transform="scale(0.015625)"/>
      </defs>
      <use xlink:href="#Cmr10-70"/>
      <use xlink:href="#Cmr10-84" transform="translate(78.421875 0)"/>
      <use xlink:href="#Cmr10-42" transform="translate(117.53125 0)"/>
      <use xlink:href="#Cmr10-5a" transform="translate(167.53125 0)"/>
      <use xlink:href="#Cmr10-74" transform="translate(223.046875 0)"/>
      <use xlink:href="#Cmr10-49" transform="translate(278.5625 0)"/>
      <use xlink:href="#Cmr10-53" transform="translate(334.078125 0)"/>
      <use xlink:href="#Cmr10-1c" transform="translate(367.375 0)"/>
      <use xlink:href="#Cmr10-84" transform="translate(406.1875 0)"/>
      <use xlink:href="#Cmr10-5a" transform="translate(445.296875 0)"/>
      <use xlink:href="#Cmr10-1c" transform="translate(500.8125 0)"/>
      <use xlink:href="#Cmr10-59" transform="translate(539.625 0)"/>
      <use xlink:href="#Cmr10-53" transform="translate(595.140625 0)"/>
      <use xlink:href="#Cmr10-77" transform="translate(628.4375 0)"/>
      <use xlink:href="#Cmr10-52" transform="translate(667.25 0)"/>
      <use xlink:href="#Cmr10-42" transform="translate(706.65625 0)"/>
      <use xlink:href="#Cmr10-6a" transform="translate(756.65625 0)"/>
      <use xlink:href="#Cmr10-25" transform="translate(784.34375 0)"/>
      <use xlink:href="#Cmr10-82" transform="translate(837.03125 0)"/>
      <use xlink:href="#Cmr10-84" transform="translate(881.421875 0)"/>
      <use xlink:href="#Cmr10-44" transform="translate(920.53125 0)"/>
     </g>
    </g>
    <g id="line2d_55">
     <path d="M 445.488437 280.667539 
L 456.488437 280.667539 
L 467.488437 280.667539 
" style="fill: none; stroke-dasharray: 7.03,3.04; stroke-dashoffset: 0; stroke: #d62728; stroke-width: 1.9"/>
    </g>
    <g id="text_21">
     <!-- Prediction -->
     <g transform="translate(476.288437 284.517539) scale(0.11 -0.11)">
      <use xlink:href="#Cmr10-5f"/>
      <use xlink:href="#Cmr10-84" transform="translate(68.015625 0)"/>
      <use xlink:href="#Cmr10-82" transform="translate(107.125 0)"/>
      <use xlink:href="#Cmr10-49" transform="translate(151.515625 0)"/>
      <use xlink:href="#Cmr10-24" transform="translate(207.03125 0)"/>
      <use xlink:href="#Cmr10-7b" transform="translate(234.71875 0)"/>
      <use xlink:href="#Cmr10-1c" transform="translate(279.109375 0)"/>
      <use xlink:href="#Cmr10-24" transform="translate(317.921875 0)"/>
      <use xlink:href="#Cmr10-42" transform="translate(345.609375 0)"/>
      <use xlink:href="#Cmr10-74" transform="translate(395.609375 0)"/>
     </g>
    </g>
   </g>
  </g>
 </g>
 <defs>
  <clipPath id="p396935acb5">
   <rect x="38.1" y="19.620937" width="553.61625" height="277.063203"/>
  </clipPath>
 </defs>
</svg>
